<?xml version="1.0" encoding="UTF-8" standalone="no"?><!DOCTYPE svg PUBLIC "-//W3C//DTD SVG 1.1//EN" "http://www.w3.org/Graphics/SVG/1.1/DTD/svg11.dtd"><svg width="100%" height="100%" viewBox="0 0 5225 4167" version="1.1" xmlns="http://www.w3.org/2000/svg" xmlns:xlink="http://www.w3.org/1999/xlink" xml:space="preserve" xmlns:serif="http://www.serif.com/" style="fill-rule:evenodd;clip-rule:evenodd;stroke-linejoin:round;stroke-miterlimit:2;"><g id="Wordgram"><path d="M2539.324,3144.811c14.762,4.151 14.865,3.725 28.512,10.865c21.933,11.475 28.634,30.847 29.823,34.282c6.602,19.086 5.952,19.461 6.082,132.001c0.004,3.474 7.583,72.42 -57.526,87.642c-11.346,2.653 -27.933,2.634 -82.297,2.919c-1.529,0.008 -14.991,0.078 -18.864,-3.038c-6.301,-5.07 -4.215,-6.955 -4.467,-163.261c-0.155,-95.958 0.075,-97.233 4.768,-100.539c3.924,-2.765 4.312,-3.038 59.939,-2.874c18.258,0.054 18.19,0.117 34.031,2.004Zm-34.024,32.767c-17.216,1.232 -18.179,-0.87 -23.104,3.942c-5.998,5.86 -3.799,7.35 -4.164,140.483c-0.04,14.436 -0.284,45.31 0.996,47.863c5.135,10.238 19.289,8.768 19.318,8.768c68.588,0.789 68.285,-19.169 68.428,-77.327c0.208,-84.675 4.992,-112.406 -34.294,-122.134c-5.73,-1.419 -25.002,-1.576 -27.18,-1.594Z" style="fill:#1d2631;"/><path id="M" d="M692.745,3199.843c-9.355,13.628 -5.496,15.138 -13.682,39.887c-14.399,43.535 -13.805,43.681 -16.108,46.912c-5.268,7.389 -27.979,12.592 -35.339,-5.095c-8.507,-20.441 -18.872,-63.547 -20.22,-69.151c-0.336,-1.396 -4.321,-17.968 -11.552,-13.733c-7.374,4.319 0.606,7.299 0.493,123.349c-0.081,83.106 -0.768,83.683 -3.907,86.822c-1.304,1.304 -30.085,13.029 -32.038,-10.952c-0.233,-2.86 -0.266,-238.507 -0.063,-241.409c0.871,-12.416 12.756,-13.018 14.306,-13.096c29.805,-1.507 31.857,1.857 38.862,20.945c2.159,5.883 19.857,54.113 24.651,74.356c0.328,1.387 4.36,18.413 11.753,13.394c5.248,-3.563 5.309,-16.345 18.585,-55.035c16.775,-48.886 20.113,-50.409 24.313,-52.325c3.664,-1.672 29.238,-4.996 36.408,2.186c6.106,6.116 3.028,7.752 3.942,168.211c0.038,6.616 0.376,66.091 -0.45,82.704c-1.068,21.47 -31.136,15.975 -34.352,7.102c-2.477,-6.832 -1.575,-148.83 -0.06,-165.638c0.418,-4.635 0.899,-9.263 1.337,-13.896c0.16,-1.687 1.742,-18.417 -0.178,-21.177c-1.522,-2.188 -5.178,-2.174 -6.7,-4.361Z" style="fill:#1c252f;"/><path id="e" d="M3202.101,3207.322c2.689,-0.16 23.502,-1.403 33.675,0.117c24.838,3.709 43.163,18.26 48.466,25.137c17.539,22.743 18.303,37.439 18.283,68.711c-0.001,1.493 -0.009,14.656 -5.875,17.708c-6.446,3.353 -91.6,1.068 -108.802,2.087c-13.282,0.787 -14.167,8.846 -14.467,14.67c-2.481,48.159 42.883,54.829 70.733,43.782c16.817,-6.67 18.809,-22.157 40.263,-20.518c21.789,1.664 12.61,15.21 6.875,24.974c-22.255,37.891 -95.292,39.597 -126.236,16.991c-26.435,-19.311 -29.238,-36.682 -27.939,-120.397c1.021,-65.83 62.011,-72.551 65.024,-73.261Zm-6.136,34.437c-11.775,7.758 -13.234,6.674 -19.535,19.229c-2.704,5.388 -4.556,20.393 -1.131,25.846c4.371,6.959 11.637,5.703 67.741,5.385c21.585,-0.122 26.531,-4.492 21.2,-25.49c-5.584,-22 -35.955,-34.504 -62.367,-26.984c-2.001,0.57 -3.907,1.445 -5.908,2.015Z" style="fill:#1f2832;"/><path id="e1" serif:id="e" d="M4380.529,3207.085c48.523,10.073 67.762,30.056 68.775,94.239c0.324,20.547 -6.595,19.531 -27.072,19.437c-88.871,-0.409 -89.386,-1.655 -96.173,1.973c-12.858,6.872 -11.75,66.663 47.834,60.774c32.668,-3.229 27.611,-19.72 47.829,-23.265c2.044,-0.358 31.523,-5.528 20.091,16.404c-27.119,52.029 -111.967,49.005 -142.376,13.144c-14.965,-17.649 -16.657,-33.063 -16.016,-102.284c0.06,-6.517 -3.492,-61.782 55.397,-77.997c17.585,-4.842 32.416,-2.963 41.71,-2.424Zm6.292,34.413c-11.78,-3.107 -11.682,-3.197 -12.722,-3.356c-46.917,-7.169 -63.665,38.517 -49.742,50.942c4.155,3.708 12.688,2.949 15.146,2.948c58.448,-0.025 58.471,0.331 63.318,-1.143c14.112,-4.289 6.36,-26.989 4.506,-30.385c-6.782,-12.415 -14.025,-15.442 -20.505,-19.006Z" style="fill:#1e2731;"/><path id="s" d="M4574.328,3207.42c13.623,-0.94 13.484,-1.282 27.081,-0.912c62.407,1.697 74.814,38.442 73.117,45.832c-2.051,8.933 -22.563,6.314 -24.571,6.057c-17.166,-2.192 -18.364,-24.412 -62.397,-20.618c-37.377,3.221 -32.798,29.463 -30.932,34.625c11.655,32.247 118.655,3.839 122.588,77.076c4.441,82.699 -108.769,71.434 -139.752,55.21c-18.828,-9.859 -38.179,-44.675 -13.618,-46.126c23.823,-1.407 25.563,6.49 28.935,10.564c20.553,24.834 87.901,19.246 88.352,-12.641c0.465,-32.805 -51.296,-30.03 -83.775,-38.796c-55.755,-15.048 -47.918,-74.702 -22.362,-95.194c14.232,-11.412 29.794,-13.365 37.334,-15.078Z" style="fill:#1c2530;"/><path id="s1" serif:id="s" d="M1367.1,3207.423c8.727,1.985 21.773,3.449 37.269,14.71c23.6,17.15 22.635,34.684 11.168,36.539c-18.505,2.994 -29.512,-6.793 -31.461,-8.526c-26.154,-23.258 -71.17,-12.455 -77.485,3.429c-17.172,43.193 55.937,34.192 87.991,49.031c6.532,3.024 38.282,14.454 33.736,60.635c-6.719,68.249 -121.837,60.314 -149.449,33.605c-7.55,-7.303 -28.568,-37.992 -0.886,-38.182c25.968,-0.178 21.054,11.234 34.353,18.586c17.387,9.612 77.138,15.353 79.927,-20.835c0.387,-5.018 -2.546,-15.951 -10.684,-20.947c-35.191,-21.603 -110.859,-0.137 -114.48,-68.676c-1.777,-33.636 20.863,-46.053 24.657,-48.134c25.277,-13.863 44.7,-13.697 75.343,-11.236Z" style="fill:#1d2631;"/><path id="s2" serif:id="s" d="M1092.127,3207.502c4.399,-0.282 36.153,-2.319 54.986,3.541c37.795,11.76 43.519,35.129 41.686,42.226c-1.795,6.951 -24.663,9.592 -38.965,-3.156c-26.931,-24.004 -75.486,-13.112 -79.322,9.727c-8.923,53.132 117.019,7.112 123.185,89.869c6.08,81.609 -104.812,70.738 -136.737,55.634c-22.303,-10.552 -39.947,-45.716 -13.313,-46.725c20.035,-0.759 24.277,8.281 27.088,11.929c16.647,21.609 96.517,19.641 85.691,-21.631c-7.217,-27.512 -45.774,-20.263 -85.958,-32.259c-44.012,-13.139 -49.009,-67.603 -20.833,-92.057c16.031,-13.914 41.587,-16.916 42.492,-17.098Z" style="fill:#1d2631;"/><path id="n" d="M2035.845,3210.155c13.502,-2.93 13.392,-3.071 14.583,-3.164c6.476,-0.503 34.105,-2.792 55.496,17.909c22.339,21.618 20.63,52.417 20.633,62.626c0.031,107.828 1.711,108.068 -1.088,117c-3.502,11.174 -30.724,10.348 -34.316,0.403c-3.187,-8.822 -0.858,-110.839 -1.564,-124.22c-2.828,-53.541 -70.833,-54.856 -84.468,-12.987c-4.345,13.343 -1.468,111.739 -2.324,130.195c-0.609,13.12 -8.115,14.056 -14.633,14.445c-22.458,1.34 -22.518,-5.837 -22.5,-28.298c0.119,-146.132 -0.397,-146.001 -0.119,-158.693c0.286,-13.089 4.602,-15.836 15.515,-16.388c13.61,-0.688 18.465,2.083 19.794,10.153c0.359,2.178 -0.93,5.069 0.672,6.588c1.838,1.743 4.994,1.48 7.508,1.17c3.979,-0.49 3.39,-1.589 8.083,-5.988c4.967,-4.655 5.452,-3.891 18.728,-10.752Z" style="fill:#19222d;"/><path id="t" d="M3718.85,3243.662c-7.519,0.005 -27.809,-1.552 -32.559,4.168c-2.98,3.589 -2.839,4.116 -3.041,87.967c-0.125,51.958 21.673,41.938 63.129,43.142c11.725,0.34 14.322,0.012 16.379,11.55c0.325,1.823 3.236,18.145 -9.402,21.155c-2.719,0.648 -52.658,2.287 -68.424,-2.039c-45.478,-12.481 -39.073,-51.295 -38.942,-128.963c0.024,-14.045 2.79,-33.557 -9.28,-36.616c-6.007,-1.522 -38.379,1.662 -43.326,-2.751c-9.016,-8.041 -4.889,-27.573 1.051,-30.183c7.277,-3.197 39.713,-1.587 41.364,-2.045c11.511,-3.194 10.214,-6.083 10.209,-18.031c-0.006,-14.508 -3.422,-34.301 10.124,-37.189c2.36,-0.503 21.289,-1.506 24.96,4.843c5.152,8.91 -2.753,43.628 8.968,48.377c10.384,4.207 64.914,-0.541 70.447,4.255c3.05,2.645 13.262,27.339 -6.286,31.402c-5.751,1.196 -35.097,0.955 -35.371,0.957Z" style="fill:#1f2731;"/><path id="c" d="M3470.192,3207.373c20.28,4.919 46.44,10.674 61.161,46.225c0.629,1.519 6.23,15.045 1.855,20.466c-4.512,5.589 -26.998,7.309 -33.884,-1.156c-2.79,-3.43 -8.075,-34.763 -49.362,-33.529c-40.875,1.222 -42.728,36.415 -42.979,41.17c-0.226,4.29 -0.085,55.641 0.462,62.234c1.067,12.861 4.942,34.527 35.849,39.574c8.689,1.419 38.488,1.606 48.767,-18.568c4.803,-9.427 3.122,-17.315 26.788,-18.012c32.693,-0.963 4.322,42.171 -6.921,51.973c-33.215,28.957 -126.481,26.325 -139.374,-34.002c-3.672,-17.182 -6.998,-86.241 1.638,-110.666c8.139,-23.018 24.788,-32.199 27.862,-33.894c27.918,-15.395 45.75,-13.625 68.137,-11.813Z" style="fill:#1d2631;"/><path id="v" d="M4208.432,3208.69c12.775,1.049 14.814,-2.206 18.274,4.466c1.772,3.417 2.926,5.642 -11.712,46.67c-14.664,41.1 -13.897,41.275 -28.468,82.439c-20.573,58.121 -18.616,59.229 -24.04,64.78c-7.025,7.189 -43.839,9.283 -52.489,-0.739c-3.072,-3.559 -4.919,-10.996 -6.202,-14.932c-18.272,-56.053 -19.286,-55.587 -37.058,-111.683c-17.054,-53.829 -24.579,-62.318 -17.554,-68.923c2.202,-2.071 22.742,-2.605 28.796,-0.269c11.799,4.551 22.825,59.02 35.425,97.226c17.261,52.337 15.236,52.935 17.343,57.229c2.612,5.322 2.895,6.332 8.761,5.341c4.539,-0.767 2.952,-2.601 8.226,-20.168c22.067,-73.514 29.587,-95.95 32.362,-104.228c8.755,-26.118 9.165,-34.438 20.927,-36.774c2.426,-0.482 4.982,0.047 7.408,-0.435Z" style="fill:#1e2731;"/><path id="i" d="M3870.575,3208.769c4.451,0.001 53.668,0.012 55.636,0.335c12.974,2.129 11.331,15.211 11.414,23.284c1.233,120.745 -2.011,136.906 3.983,142.789c6.664,6.54 43.934,1.861 51.975,4.748c8.37,3.005 10.492,24.78 0.915,31.331c-2.116,1.447 -18.852,1.36 -20.496,1.351c-120.717,-0.63 -120.622,0.563 -131.089,-0.095c-18.924,-1.189 -16.463,-24.583 -8.687,-30.957c7.94,-6.508 54.298,1.309 62.422,-6.002c5.393,-4.853 4.018,-25.797 4.017,-32.864c-0.011,-90.606 0.682,-91.539 -3.369,-95.626c-6.172,-6.226 -42.642,-2.4 -47.136,-3.429c-12.397,-2.841 -12.59,-5.439 -11.615,-18.11c1.671,-21.709 10.316,-16.353 32.03,-16.754Z" style="fill:#1c252f;"/><path id="i1" serif:id="i" d="M850.348,3208.857c38.829,-0.052 53.8,-2.135 56.819,9.225c1.344,5.059 0.847,141.615 1.13,145.135c1.26,15.642 11.842,15.523 17.834,15.657c13.815,0.309 13.714,-0.297 27.631,-0.04c8.003,0.148 8.823,-1.057 14.257,4.922c2.929,3.222 4.349,21.28 -1.882,25.925c-3.66,2.728 -23.997,2.7 -26.095,2.697c-127.204,-0.175 -128.661,3.028 -135.703,-3.118c-4.144,-3.617 -8.681,-24.217 5.259,-29.734c3.564,-1.41 47.343,0.811 54.726,-2.092c9.288,-3.652 7.138,-26.38 7.159,-34.738c0.229,-90.048 0.606,-90.626 -2.469,-94.713c-4.596,-6.108 -25.131,-4.212 -32.395,-4.192c-20.235,0.055 -27.798,2.001 -27.179,-18.309c0.604,-19.795 13.699,-16.329 40.908,-16.624Z" style="fill:#1c252f;"/><path id="i2" serif:id="i" d="M1571.77,3349.551c0.147,-93.713 0.729,-99.22 -4.214,-103.443c-6.731,-5.749 -48.503,1.317 -55.069,-6.943c-2.43,-3.057 -6.045,-25.565 6.188,-29.16c2.647,-0.778 19.544,-0.863 21.245,-0.871c60.099,-0.303 60.134,0.9 62.452,1.938c7.364,3.299 5.467,20.402 5.529,48.881c0.224,101.6 -1.276,101.787 1.15,110.269c3.668,12.827 32.289,7.89 47.963,8.624c18.746,0.878 19.548,31.212 0.21,33.37c-1.735,0.194 -141.403,0.646 -144.954,0.2c-17.356,-2.177 -14.612,-24.511 -8.49,-30.288c5.465,-5.158 26.868,-3.164 49.984,-3.215c21.119,-0.046 17.575,-8.339 18.004,-29.362Z" style="fill:#1d252f;"/><path id="i3" serif:id="i" d="M2732.833,3209.035c24.233,0.069 41.764,-1.164 46.187,4.375c4.18,5.235 2.849,31.505 2.809,115.488c-0.018,38.327 -3.704,49.649 19.933,49.909c25.357,0.279 25.311,-0.081 27.511,-0.027c23.228,0.575 17.949,29.48 6.932,32.676c-5.824,1.689 -5.898,1.53 -75.794,1.118c-75.327,-0.444 -76.761,1.011 -81.515,-2.468c-3.028,-2.216 -14.752,-30.496 12.617,-31.239c40.769,-1.107 43.559,4.123 51.61,-6.469c2.308,-3.036 2.281,-20.963 2.278,-22.796c-0.147,-95.421 1.477,-95.958 -1.886,-101.143c-5.879,-9.064 -42.11,-2.047 -53.478,-6.853c-7.05,-2.98 -6.674,-17.856 -5.334,-22.995c3.115,-11.946 22.309,-9.384 48.129,-9.577Z" style="fill:#1e2731;"/><path id="r" d="M2988.507,3207.541c3.498,-0.259 62.107,-11.067 81.936,45.61c15.839,45.273 -7.608,41.112 -13.514,40.98c-20.806,-0.463 -17.652,-8.317 -20.011,-20.51c-9.244,-47.781 -74.142,-43.881 -85.414,-7.417c-6.732,21.777 0.375,127.394 -4.002,138.964c-3.668,9.695 -31.423,10.644 -35.026,-0.553c-0.142,-0.441 -1.248,-0.338 -1.094,-130.879c0.066,-55.924 -2.497,-63.067 14.279,-64.559c27.223,-2.42 20.42,12.681 20.972,16.275c1.098,7.142 10.018,4.926 10.972,3.953c2.116,-2.156 2.701,-5.448 4.546,-7.84c1.205,-1.562 2.894,-2.697 4.484,-3.865c11.563,-8.494 18.326,-8.914 21.87,-10.16Z" style="fill:#1a232d;"/><path d="M220.521,3142.734c0.067,32.833 1.164,49.108 -5.027,54.409c-3.689,3.159 -13.377,1.798 -15.585,-5.032c-1.884,-5.829 -1.384,-134.009 -0.152,-139.622c3.126,-14.238 15.266,-11.404 119.649,-11.059c19.756,0.065 19.764,-0.015 20.398,0.14c1.252,0.305 12.082,2.944 11.448,11.328c-0.724,9.576 -16.142,10.009 -17.775,10.055c-21.132,0.593 -103.079,0.124 -103.275,0.183c-12.46,3.806 -9.92,10.051 -9.682,79.598Z" style="fill:#5c7451;"/><path d="M5004.646,3122.145c0.134,-3.313 1.196,-29.595 0.771,-41.439c-0.433,-12.078 0.447,-14.784 -11.282,-17.747c-4.587,-1.159 -110.748,3.34 -117.172,-2.571c-0.9,-0.828 -8.505,-7.826 -0.853,-15.263c4.123,-4.008 14.268,-3.777 63.226,-3.864c23.608,-0.042 72.236,-0.677 75.41,0.353c9.382,3.046 10.616,10.616 10.823,11.885c0.764,4.688 0.818,128.05 0.628,130.392c-0.122,1.502 -1.229,15.176 -10.991,15.302c-14.101,0.183 -9.412,-18.647 -10.56,-77.048Z" style="fill:#5c7451;"/><path d="M220.417,3508.266c0.085,1.142 1.06,14.269 1.06,14.269c3.568,10.559 8.151,5.674 111.736,7.357c1.751,0.028 23.088,0.375 18.168,12.209c-4.174,10.038 -7.759,8.092 -107.761,8.237c-28.978,0.042 -42.929,2.533 -44.31,-14.226c-1.379,-16.731 -0.11,-130.782 0.182,-132.113c1.979,-9.028 8.286,-9.32 9.344,-9.369c14.693,-0.679 10.986,11.436 11.582,113.636Z" style="fill:#5c7451;"/><path d="M5004.367,3439.231c0.005,-4.153 -1.116,-37.763 3.445,-41.911c0.917,-0.834 14.131,-7.27 17.833,7.939c1.545,6.349 0.044,56.748 -0.103,61.681c-0.642,21.546 0.554,51.088 0.264,61.921c-0.617,23.058 -8.154,21.473 -31.282,21.634c-8.835,0.062 -103.531,0.721 -110.436,-0.375c-14.008,-2.223 -11.812,-15.312 -5.234,-18.259c10.618,-4.755 113.574,1.951 121.501,-4.288c5.099,-4.013 3.662,-7.661 4.012,-88.342Z" style="fill:#5c7451;"/><path d="M1575.398,3174.457c-2.258,-1.902 -5.49,-2.39 -7.747,-4.292c-9.859,-8.309 -9.471,-41.122 20.519,-39.028c33.393,2.331 25.046,37.964 12.31,42.797c-12.042,4.569 -12.358,1.97 -25.082,0.523Z" style="fill:#19232d;"/><path d="M3933.65,3171.864c-0.166,0.044 -26.214,12.661 -38.447,-6.952c-3.794,-6.083 -7.474,-34.235 23.61,-33.52c29.395,0.676 25.617,29.695 18.913,37.279c-1.143,1.293 -2.933,1.9 -4.076,3.193Z" style="fill:#202a36;"/><path d="M862.63,3156.662c0.14,-1.108 -3.551,-24.445 22.333,-25.296c2.573,-0.085 23.863,-0.784 26.379,18.43c4.431,33.85 -40.999,31.893 -47.249,13.65c-0.75,-2.189 -0.713,-4.596 -1.463,-6.784Z" style="fill:#1d2732;"/><path d="M2736.936,3156.739c0.372,-2.504 -0.153,-5.087 0.219,-7.591c2.965,-19.952 26.918,-19.786 37.906,-15.073c14.357,6.157 18.728,43.196 -14.587,42.086c-23.99,-0.799 -23.353,-18.907 -23.538,-19.422Z" style="fill:#1c2631;"/><path d="M1829.077,3207.297c7.355,1.902 26.827,4.669 44.464,22.304c19.881,19.879 19.757,36.512 19.138,106.184c-0.305,34.322 -8.178,73.912 -77.05,79.765c-8.986,0.764 -46.114,-0.628 -66.684,-19.958c-23.799,-22.364 -20.823,-56.583 -20.853,-108.077c-0.004,-6.416 -4.871,-70.335 67.312,-80.583c10.602,-1.505 30.988,0.148 33.673,0.366Zm-6.63,33.064c-1.855,-0.189 -22.009,-5.266 -41.069,5.941c-13.432,7.897 -15.361,24.736 -15.647,27.232c-0.572,4.993 -0.776,64.768 -0.473,69.317c3.151,47.327 49.908,42.079 65.285,37.15c29.146,-9.344 26.078,-30.13 25.91,-92.469c-0.107,-39.804 -16.45,-41.155 -34.006,-47.17Z" style="fill:#1f2832;"/></g><g id="Logo"><path d="M3575.755,966.898c-4.997,-1.462 -35.807,-10.48 -63.856,-12.577c-39.691,-2.968 -39.616,-2.849 -497.515,-2.279c-78.462,0.098 -87.157,2.554 -89.36,-10.185c-1.211,-7.005 -0.416,-225.242 -0.344,-244.828c0.268,-73.424 -0.625,-75.218 4.891,-78.07c7.195,-3.72 7.718,-2.966 154.851,-2.995c30.263,-0.006 367.465,-0.072 378.292,0.165c55.349,1.212 304.078,-4.829 515.938,216.289c26.54,27.7 68.177,81.826 80.311,102.308c37.879,63.936 52.931,92.051 70.252,147.287c18.042,57.533 22.313,76.09 27.097,112.369c7.528,57.087 6,57.285 6.14,567.437c0.073,266.834 0.894,276.37 -8.95,335.835c-6.702,40.48 -30.071,117.378 -55.625,167.442c-32.299,63.279 -43.247,77.355 -71.535,115.449c-53.395,71.902 -123.328,122.99 -135.547,131.916c-135.893,99.272 -277.321,117.538 -287.871,118.948c-63.087,8.433 -63.338,6.412 -574.541,6.503c-84.01,0.015 -92.259,1.84 -94.989,-8.411c-2.128,-7.99 -0.778,-205.304 -0.655,-223.157c0.531,-77.547 -2.908,-84.14 11.987,-87.734c0.875,-0.211 354.102,-0.319 384.893,-0.328c175.443,-0.053 175.532,0.383 196.195,-2.665c11.537,-1.702 83.187,-12.27 138.64,-45.026c49.635,-29.32 112.126,-73.569 159.46,-166.989c5.951,-11.745 36.694,-72.42 40.465,-159.527c0.659,-15.217 0.193,-596.938 0.136,-602.623c-0.719,-71.173 -25.662,-148.507 -56.352,-197.413c-83.972,-133.812 -190.344,-164.195 -232.407,-177.142Z" style="fill:#1e262f;"/><path d="M2707.184,1090.597c-57.282,45.684 -101.586,79.22 -110.518,85.981c-13.622,10.311 -12.426,11.55 -26.144,21.723c-23.551,17.465 -23.037,17.906 -82.807,64.508c-5.292,4.126 -75.685,60.133 -82.263,65.367c-125.022,99.472 -124.309,100.197 -250.085,198.737c-29.772,23.325 -28.589,24.671 -70.142,55.934c-7.023,5.284 -42.03,34.482 -45.661,37.509c-11.601,9.676 -12.063,8.92 -47.056,37.537c-30.691,25.099 -32.571,25.242 -36.097,25.509c-7.067,0.535 -6.823,-1.271 -42.263,-26.122c-4.316,-3.026 -3.919,-3.451 -53.187,-38.884c-6.185,-4.448 -5.913,-4.623 -76.931,-56.134c-5.811,-4.215 -5.286,-4.893 -71.849,-53.755c-5.569,-4.088 -48.485,-35.065 -72.277,-52.973c-2.447,-1.842 -247.257,-184.534 -257.38,-191.605c-21.043,-14.699 -38.76,-30.122 -56.488,-41.417c-9.837,-6.268 -8.564,-8.018 -117.446,-86.408c-29.08,-20.937 -54.525,-41.019 -59.182,-44.694c-0.321,-0.254 -51.82,-38.27 -56.327,-41.597c-16.918,-12.489 -29.555,-14.328 -30.285,-37.581c-0.069,-2.201 0.174,-335.055 0.195,-364.191c0.001,-1.64 0.014,-19.605 0.286,-20.493c3.992,-13.058 18.906,-10.572 24.595,-10.738c17.439,-0.512 18.887,-1.079 57.941,28.744c36.445,27.831 36.937,26.984 45.186,33.182c4.12,3.096 48.896,36.741 51.527,38.673c10.028,7.362 98.948,72.643 124.689,92.929c8.262,6.511 31.435,22.423 48.189,35.991c16.153,13.081 59.123,43.336 84.159,63.014c17.674,13.893 18.441,12.719 35.683,27.138c8.923,7.462 41.758,29.859 83.673,63.587c13.433,10.809 64.31,46.926 175.602,132.505c41.718,32.08 42.536,30.773 84.01,63.121c20.544,16.024 59.172,44.517 76.367,57.225c16.897,12.489 24.713,-1.678 39.602,-13.14c10.461,-8.053 66.123,-50.905 129.281,-102.559c3.997,-3.269 4.055,-3.012 50.449,-40.251c12.422,-9.97 127.184,-102.086 155.89,-123.854c30.828,-23.378 435.038,-348.992 445.877,-353.546c6.554,-2.754 39.043,-8.698 42.832,7.244c2.155,9.069 0.76,322.396 0.636,350.43c-0.134,30.174 -5.441,29.56 -26.542,45.506c-13.489,10.195 -12.24,11.619 -26.018,21.513c-20.594,14.789 -19.053,16.621 -40.041,30.657c-1.673,1.119 -5.712,3.82 -19.682,15.678Z" style="fill:#1e262f;"/><path d="M1371.148,2560.406c0.028,65.529 2.073,74.345 -10.045,76.95c-4.043,0.869 -89.245,0.353 -266.165,0.607c-16.567,0.024 -30.123,2.501 -31.402,-14.065c-1.745,-22.6 0.619,-440.014 -0.59,-1030.214c-0.066,-32.405 -0.016,-32.335 0.152,-126.075c0.116,-64.441 0.402,-64.421 0.4,-70.023c-0.038,-88.937 -0.266,-103.113 -0.41,-112.078c-0.502,-31.159 -1.109,-31.276 0.203,-33.625c0.342,-0.612 8.88,-2.792 10.872,-2.419c2.485,0.464 89.112,65.349 89.588,65.716c6.298,4.851 6.67,4.284 79.886,59.095c5.478,4.101 39.709,29.727 69.031,50.512c3.295,2.336 2.948,2.731 40.875,29.64c19.682,13.964 17.517,16.978 17.549,41.194c0.705,532.399 -1.08,532.303 0.056,1064.788Z" style="fill:#1e262f;"/><path d="M2831.875,2539.402c-0.124,90.031 -0.413,90.575 -3.406,93.93c-5.183,5.81 -6.562,4.423 -94.304,4.615c-67.462,0.148 -88.975,-0.142 -119.087,0.024c-63.675,0.352 -72.061,2.829 -73.294,-14.027c-0.876,-11.975 -0.952,-292.185 -0.401,-294.185c0.303,-1.099 2.496,-9.054 9.719,-10.415c14.944,-2.817 15.063,-1.569 190.086,-1.092c31.543,0.086 31.431,0.058 62.996,0.022c19.945,-0.023 26.81,-2.052 27.45,18.013c0.518,16.241 -0.057,16.137 0.24,203.116Z" style="fill:#5c7451;"/></g></svg>